<?xml version="1.0" encoding="UTF-8" standalone="no"?>
<!DOCTYPE svg PUBLIC "-//W3C//DTD SVG 1.1//EN" "http://www.w3.org/Graphics/SVG/1.1/DTD/svg11.dtd">
<svg width="100%" height="100%" viewBox="0 0 744 216" version="1.1" xmlns="http://www.w3.org/2000/svg" xmlns:xlink="http://www.w3.org/1999/xlink" xml:space="preserve" xmlns:serif="http://www.serif.com/" style="fill-rule:evenodd;clip-rule:evenodd;stroke-linejoin:round;stroke-miterlimit:2;">
    <g transform="matrix(1,0,0,1,-1634.37,-2302.29)">
        <g id="Artboard5" transform="matrix(0.52991,0,0,0.330669,1600.79,3290.48)">
            <rect x="63.356" y="-2988.47" width="1402.65" height="652.865" style="fill:none;"/>
            <g transform="matrix(1.88711,0,0,3.02417,-1589.4,-9948.05)">
                <path d="M909.621,2477.84L886.418,2477.84L886.418,2362.61C901.205,2362.08 910.67,2361.82 914.812,2361.82C930.911,2361.82 943.653,2366.71 953.039,2376.49C962.425,2386.27 967.119,2399.29 967.119,2415.54C967.119,2457.07 947.953,2477.84 909.621,2477.84ZM902.149,2376.77L902.149,2462.89C905.662,2463.42 910.014,2463.68 915.206,2463.68C926.218,2463.68 934.87,2459.55 941.162,2451.29C947.455,2443.03 950.601,2431.56 950.601,2416.88C950.601,2389.61 938.357,2375.98 913.869,2375.98C912.4,2375.98 908.494,2376.24 902.149,2376.77Z" style="fill:white;fill-rule:nonzero;"/>
            </g>
            <g transform="matrix(1.88711,0,0,3.02417,-1589.4,-9948.05)">
                <path d="M999.446,2361.74C1002.01,2361.74 1004.21,2362.65 1006.01,2364.46C1007.82,2366.27 1008.73,2368.43 1008.73,2370.95C1008.73,2373.52 1007.82,2375.7 1006.01,2377.51C1004.21,2379.32 1002.01,2380.23 999.446,2380.23C996.929,2380.23 994.766,2379.32 992.957,2377.51C991.148,2375.7 990.243,2373.52 990.243,2370.95C990.243,2368.38 991.135,2366.2 992.918,2364.42C994.7,2362.64 996.877,2361.74 999.446,2361.74Z" style="fill:white;fill-rule:nonzero;"/>
            </g>
            <g transform="matrix(1.88711,0,0,3.02417,-1589.4,-9948.05)">
                <path d="M991.266,2477.84L991.266,2406.18L979.703,2406.18L979.703,2393.6L1006.21,2393.6L1006.21,2477.84L991.266,2477.84Z" style="fill:white;fill-rule:nonzero;"/>
            </g>
            <g transform="matrix(1.88711,0,0,3.02417,-1589.4,-9948.05)">
                <path d="M1093.52,2400.44L1086.12,2410.98C1084.6,2409.46 1081.92,2408.02 1078.06,2406.66C1074.21,2405.29 1070.42,2404.61 1066.7,2404.61C1058.57,2404.61 1052.12,2407.46 1047.35,2413.14C1042.58,2418.83 1040.19,2426.63 1040.19,2436.55C1040.19,2446.4 1042.63,2453.91 1047.51,2459.08C1052.38,2464.24 1059.15,2466.83 1067.8,2466.83C1074.51,2466.83 1081.27,2464.23 1088.09,2459.04L1093.99,2471.63C1085.97,2476.82 1076.03,2479.41 1064.18,2479.41C1052.7,2479.41 1043.2,2475.56 1035.71,2467.85C1028.21,2460.14 1024.46,2449.71 1024.46,2436.55C1024.46,2423.12 1028.35,2412.35 1036.14,2404.22C1043.93,2396.09 1054.58,2392.03 1068.11,2392.03C1072.46,2392.03 1077.18,2392.94 1082.27,2394.78C1087.36,2396.61 1091.11,2398.5 1093.52,2400.44Z" style="fill:white;fill-rule:nonzero;"/>
            </g>
            <g transform="matrix(1.88711,0,0,3.02417,-1589.4,-9948.05)">
                <path d="M1115.07,2405.4L1105.32,2405.4L1105.32,2393.6L1115.07,2393.6L1115.07,2375.98L1130.02,2370.24L1130.02,2393.6L1153.14,2393.6L1153.14,2405.4L1130.02,2405.4L1130.02,2447.24C1130.02,2454.32 1131.21,2459.36 1133.59,2462.34C1135.98,2465.33 1139.82,2466.83 1145.12,2466.83C1148.94,2466.83 1152.9,2465.86 1156.99,2463.92L1159.2,2477.05C1153.01,2478.63 1146.22,2479.41 1138.82,2479.41C1132.16,2479.41 1126.54,2476.93 1121.95,2471.98C1117.36,2467.02 1115.07,2460.77 1115.07,2453.22L1115.07,2405.4Z" style="fill:white;fill-rule:nonzero;"/>
            </g>
            <g transform="matrix(1.88711,0,0,3.02417,-1589.4,-9948.05)">
                <path d="M1180.83,2477.84L1180.83,2406.18L1169.26,2406.18L1169.26,2393.6L1195.77,2393.6L1195.77,2477.84L1180.83,2477.84Z" style="fill:white;fill-rule:nonzero;"/>
            </g>
            <g transform="matrix(1.88711,0,0,3.02417,-1589.4,-9948.05)">
                <path d="M1214.02,2435.52C1214.02,2422.52 1217.52,2412.02 1224.52,2404.02C1231.52,2396.02 1240.74,2392.03 1252.17,2392.03C1264.23,2392.03 1273.59,2395.87 1280.25,2403.55C1286.91,2411.23 1290.24,2421.89 1290.24,2435.52C1290.24,2449.1 1286.83,2459.81 1280.01,2467.65C1273.19,2475.49 1263.91,2479.41 1252.17,2479.41C1240.16,2479.41 1230.8,2475.45 1224.09,2467.53C1217.38,2459.62 1214.02,2448.95 1214.02,2435.52ZM1229.75,2435.52C1229.75,2456.66 1237.22,2467.22 1252.17,2467.22C1259.14,2467.22 1264.61,2464.39 1268.57,2458.73C1272.53,2453.06 1274.51,2445.33 1274.51,2435.52C1274.51,2414.65 1267.06,2404.22 1252.17,2404.22C1245.35,2404.22 1239.91,2407 1235.85,2412.55C1231.78,2418.11 1229.75,2425.77 1229.75,2435.52Z" style="fill:white;fill-rule:nonzero;"/>
            </g>
            <g transform="matrix(1.88711,0,0,3.02417,-1589.4,-9948.05)">
                <path d="M1357.8,2477.84L1357.8,2428.84C1357.8,2419.87 1356.45,2413.59 1353.75,2410C1351.05,2406.41 1346.53,2404.61 1340.18,2404.61C1336.77,2404.61 1333.21,2405.63 1329.49,2407.68C1325.76,2409.72 1322.9,2412.24 1320.91,2415.23L1320.91,2477.84L1305.97,2477.84L1305.97,2393.6L1316.19,2393.6L1320.91,2404.45C1325.84,2396.17 1333.89,2392.03 1345.06,2392.03C1363.52,2392.03 1372.75,2403.25 1372.75,2425.69L1372.75,2477.84L1357.8,2477.84Z" style="fill:white;fill-rule:nonzero;"/>
            </g>
            <g transform="matrix(1.88711,0,0,3.02417,-1589.4,-9948.05)">
                <path d="M1441.57,2468.16C1435.59,2475.66 1426.44,2479.41 1414.12,2479.41C1407.51,2479.41 1401.78,2477.01 1396.93,2472.22C1392.08,2467.42 1389.66,2461.45 1389.66,2454.32C1389.66,2445.77 1393.39,2438.55 1400.87,2432.65C1408.34,2426.75 1417.87,2423.8 1429.46,2423.8C1432.6,2423.8 1436.17,2424.49 1440.15,2425.85C1440.15,2412.21 1434.07,2405.4 1421.91,2405.4C1412.57,2405.4 1405.39,2407.91 1400.35,2412.95L1394.06,2400.44C1396.89,2398.14 1400.81,2396.16 1405.82,2394.5C1410.83,2392.85 1415.61,2392.03 1420.18,2392.03C1432.39,2392.03 1441.27,2394.8 1446.8,2400.36C1452.33,2405.92 1455.1,2414.76 1455.1,2426.87L1455.1,2457.07C1455.1,2464.47 1457.3,2469.4 1461.71,2471.86L1461.71,2479.33C1455.62,2479.33 1451.07,2478.47 1448.06,2476.74C1445.04,2475.01 1442.88,2472.15 1441.57,2468.16ZM1440.15,2436.47C1435.43,2435.42 1432.13,2434.89 1430.24,2434.89C1422.69,2434.89 1416.53,2436.83 1411.76,2440.71C1406.99,2444.59 1404.6,2449.18 1404.6,2454.48C1404.6,2463.24 1409.77,2467.61 1420.1,2467.61C1427.65,2467.61 1434.33,2464.02 1440.15,2456.84L1440.15,2436.47Z" style="fill:white;fill-rule:nonzero;"/>
            </g>
            <g transform="matrix(1.88711,0,0,3.02417,-1589.4,-9948.05)">
                <path d="M1524.39,2407.99C1521.14,2405.74 1517.87,2404.61 1514.56,2404.61C1509.27,2404.61 1504.64,2407.05 1500.68,2411.93C1496.72,2416.8 1494.74,2422.68 1494.74,2429.55L1494.74,2477.84L1479.8,2477.84L1479.8,2393.6L1494.74,2393.6L1494.74,2407.05C1500.19,2397.03 1508.3,2392.03 1519.05,2392.03C1521.72,2392.03 1525.57,2392.5 1530.61,2393.44L1524.39,2407.99Z" style="fill:white;fill-rule:nonzero;"/>
            </g>
            <g transform="matrix(1.88711,0,0,3.02417,-1589.4,-9948.05)">
                <path d="M1573.4,2492.16C1571.46,2497.5 1567.38,2501.96 1561.17,2505.53C1554.95,2509.09 1548.02,2510.88 1540.36,2510.88L1540.36,2497.5C1546.6,2497.5 1551.95,2496.05 1556.41,2493.14C1560.86,2490.23 1563.09,2486.68 1563.09,2482.48C1563.09,2477.87 1562.28,2473.32 1560.65,2468.83C1559.03,2464.35 1556.93,2458.8 1554.36,2452.2L1531.55,2393.6L1546.81,2393.6L1571.59,2458.73L1593.85,2393.6L1609.11,2393.6L1573.4,2492.16Z" style="fill:white;fill-rule:nonzero;"/>
            </g>
            <g transform="matrix(1.88711,0,0,3.02417,-1589.4,-9948.05)">
                <path d="M895.017,2352.14L886.511,2352.14L886.511,2315.47L899.446,2315.47C902.03,2315.47 904.249,2315.78 906.103,2316.39C907.957,2317.01 909.483,2317.85 910.683,2318.92C911.883,2320 912.768,2321.26 913.338,2322.72C913.909,2324.18 914.194,2325.76 914.194,2327.45C914.194,2329.28 913.9,2330.96 913.313,2332.49C912.726,2334.01 911.828,2335.32 910.62,2336.41C909.412,2337.5 907.881,2338.36 906.027,2338.97C904.173,2339.58 901.98,2339.89 899.446,2339.89L895.017,2339.89L895.017,2352.14ZM899.446,2321.84L895.017,2321.84L895.017,2333.47L899.446,2333.47C901.661,2333.47 903.255,2332.94 904.228,2331.88C905.201,2330.83 905.688,2329.35 905.688,2327.45C905.688,2326.62 905.562,2325.85 905.31,2325.16C905.058,2324.48 904.677,2323.89 904.165,2323.39C903.653,2322.89 903.007,2322.51 902.227,2322.24C901.447,2321.98 900.52,2321.84 899.446,2321.84Z" style="fill:white;fill-rule:nonzero;"/>
            </g>
            <g transform="matrix(1.88711,0,0,3.02417,-1589.4,-9948.05)">
                <path d="M927.13,2352.14L918.623,2352.14L918.623,2315.47L930.552,2315.47C933.203,2315.47 935.464,2315.75 937.335,2316.29C939.205,2316.84 940.732,2317.6 941.915,2318.57C943.098,2319.54 943.958,2320.69 944.495,2322.02C945.031,2323.34 945.3,2324.79 945.3,2326.35C945.3,2327.54 945.14,2328.66 944.822,2329.72C944.503,2330.78 944.029,2331.75 943.4,2332.65C942.771,2333.55 941.999,2334.35 941.084,2335.05C940.17,2335.76 939.117,2336.34 937.926,2336.79C938.496,2337.08 939.029,2337.43 939.524,2337.85C940.019,2338.27 940.451,2338.78 940.82,2339.38L948.622,2352.14L940.921,2352.14C939.495,2352.14 938.471,2351.61 937.851,2350.53L931.76,2339.89C931.492,2339.42 931.177,2339.08 930.816,2338.88C930.456,2338.68 929.948,2338.58 929.294,2338.58L927.13,2338.58L927.13,2352.14ZM930.552,2321.84L927.13,2321.84L927.13,2332.71L930.552,2332.71C931.71,2332.71 932.696,2332.57 933.509,2332.27C934.323,2331.98 934.99,2331.57 935.51,2331.05C936.03,2330.53 936.408,2329.93 936.643,2329.23C936.877,2328.53 936.995,2327.78 936.995,2326.98C936.995,2325.37 936.471,2324.11 935.422,2323.2C934.373,2322.3 932.75,2321.84 930.552,2321.84Z" style="fill:white;fill-rule:nonzero;"/>
            </g>
            <g transform="matrix(1.88711,0,0,3.02417,-1589.4,-9948.05)">
                <path d="M987.026,2333.8C987.026,2336.45 986.569,2338.91 985.655,2341.2C984.74,2343.48 983.453,2345.46 981.792,2347.15C980.131,2348.83 978.13,2350.16 975.789,2351.11C973.449,2352.07 970.852,2352.55 968,2352.55C965.148,2352.55 962.547,2352.07 960.199,2351.11C957.85,2350.16 955.84,2348.83 954.171,2347.15C952.502,2345.46 951.21,2343.48 950.295,2341.2C949.381,2338.91 948.924,2336.45 948.924,2333.8C948.924,2331.14 949.381,2328.68 950.295,2326.4C951.21,2324.12 952.502,2322.14 954.171,2320.46C955.84,2318.78 957.85,2317.46 960.199,2316.51C962.547,2315.55 965.148,2315.07 968,2315.07C970.852,2315.07 973.449,2315.55 975.789,2316.52C978.13,2317.48 980.131,2318.8 981.792,2320.48C983.453,2322.16 984.74,2324.14 985.655,2326.42C986.569,2328.7 987.026,2331.16 987.026,2333.8ZM978.319,2333.8C978.319,2331.98 978.084,2330.35 977.614,2328.9C977.144,2327.45 976.469,2326.22 975.588,2325.21C974.707,2324.21 973.629,2323.44 972.354,2322.9C971.079,2322.36 969.628,2322.09 968,2322.09C966.356,2322.09 964.892,2322.36 963.609,2322.9C962.325,2323.44 961.243,2324.21 960.362,2325.21C959.481,2326.22 958.806,2327.45 958.336,2328.9C957.866,2330.35 957.632,2331.98 957.632,2333.8C957.632,2335.62 957.866,2337.26 958.336,2338.72C958.806,2340.17 959.481,2341.4 960.362,2342.4C961.243,2343.41 962.325,2344.18 963.609,2344.71C964.892,2345.23 966.356,2345.5 968,2345.5C969.628,2345.5 971.079,2345.23 972.354,2344.71C973.629,2344.18 974.707,2343.41 975.588,2342.4C976.469,2341.4 977.144,2340.17 977.614,2338.72C978.084,2337.26 978.319,2335.62 978.319,2333.8Z" style="fill:white;fill-rule:nonzero;"/>
            </g>
            <g transform="matrix(1.88711,0,0,3.02417,-1589.4,-9948.05)">
                <path d="M1005.35,2352.14L991.103,2352.14L991.103,2315.47L1005.35,2315.47C1008.2,2315.47 1010.8,2315.94 1013.14,2316.86C1015.48,2317.78 1017.48,2319.06 1019.14,2320.68C1020.8,2322.31 1022.09,2324.24 1023,2326.49C1023.92,2328.72 1024.37,2331.16 1024.37,2333.8C1024.37,2336.45 1023.92,2338.89 1023,2341.13C1022.09,2343.37 1020.8,2345.31 1019.14,2346.95C1017.48,2348.58 1015.48,2349.86 1013.14,2350.77C1010.8,2351.68 1008.2,2352.14 1005.35,2352.14ZM1005.35,2322.02L999.66,2322.02L999.66,2345.6L1005.35,2345.6C1006.98,2345.6 1008.43,2345.33 1009.7,2344.78C1010.98,2344.24 1012.05,2343.46 1012.94,2342.44C1013.82,2341.43 1014.49,2340.19 1014.96,2338.73C1015.43,2337.27 1015.67,2335.62 1015.67,2333.8C1015.67,2331.98 1015.43,2330.35 1014.96,2328.89C1014.49,2327.43 1013.82,2326.19 1012.94,2325.18C1012.05,2324.16 1010.98,2323.38 1009.7,2322.84C1008.43,2322.29 1006.98,2322.02 1005.35,2322.02Z" style="fill:white;fill-rule:nonzero;"/>
            </g>
            <g transform="matrix(1.88711,0,0,3.02417,-1589.4,-9948.05)">
                <path d="M1043.7,2345.42C1044.84,2345.42 1045.86,2345.23 1046.76,2344.86C1047.66,2344.48 1048.42,2343.94 1049.04,2343.23C1049.66,2342.53 1050.13,2341.67 1050.46,2340.65C1050.79,2339.64 1050.95,2338.49 1050.95,2337.19L1050.95,2315.47L1059.46,2315.47L1059.46,2337.19C1059.46,2339.44 1059.09,2341.51 1058.36,2343.39C1057.63,2345.26 1056.59,2346.88 1055.23,2348.24C1053.87,2349.6 1052.22,2350.66 1050.27,2351.41C1048.32,2352.17 1046.13,2352.55 1043.7,2352.55C1041.25,2352.55 1039.05,2352.17 1037.11,2351.41C1035.16,2350.66 1033.51,2349.6 1032.15,2348.24C1030.79,2346.88 1029.75,2345.26 1029.03,2343.39C1028.31,2341.51 1027.95,2339.44 1027.95,2337.19L1027.95,2315.47L1036.45,2315.47L1036.45,2337.17C1036.45,2338.46 1036.62,2339.61 1036.94,2340.63C1037.27,2341.64 1037.75,2342.51 1038.37,2343.22C1038.99,2343.93 1039.75,2344.48 1040.64,2344.86C1041.54,2345.23 1042.56,2345.42 1043.7,2345.42Z" style="fill:white;fill-rule:nonzero;"/>
            </g>
            <g transform="matrix(1.88711,0,0,3.02417,-1589.4,-9948.05)">
                <path d="M1089.63,2342.66C1089.83,2342.66 1090.03,2342.69 1090.24,2342.77C1090.44,2342.84 1090.63,2342.97 1090.81,2343.16L1094.19,2346.71C1092.71,2348.64 1090.86,2350.09 1088.64,2351.07C1086.41,2352.05 1083.78,2352.55 1080.75,2352.55C1077.96,2352.55 1075.47,2352.07 1073.26,2351.12C1071.05,2350.18 1069.18,2348.87 1067.65,2347.2C1066.11,2345.53 1064.93,2343.55 1064.11,2341.26C1063.29,2338.97 1062.88,2336.48 1062.88,2333.8C1062.88,2331.06 1063.35,2328.55 1064.29,2326.26C1065.23,2323.97 1066.54,2321.99 1068.23,2320.33C1069.91,2318.67 1071.93,2317.38 1074.28,2316.46C1076.63,2315.53 1079.22,2315.07 1082.06,2315.07C1083.43,2315.07 1084.73,2315.19 1085.94,2315.44C1087.16,2315.68 1088.3,2316.02 1089.35,2316.44C1090.41,2316.87 1091.38,2317.38 1092.27,2317.98C1093.16,2318.58 1093.95,2319.23 1094.64,2319.95L1091.77,2323.8C1091.59,2324.04 1091.37,2324.25 1091.12,2324.45C1090.86,2324.64 1090.51,2324.74 1090.06,2324.74C1089.76,2324.74 1089.47,2324.67 1089.2,2324.53C1088.93,2324.4 1088.65,2324.24 1088.35,2324.04C1088.05,2323.85 1087.71,2323.64 1087.35,2323.41C1086.99,2323.19 1086.57,2322.98 1086.07,2322.79C1085.58,2322.59 1085,2322.43 1084.33,2322.3C1083.67,2322.16 1082.89,2322.09 1082.01,2322.09C1080.46,2322.09 1079.05,2322.37 1077.78,2322.91C1076.5,2323.46 1075.41,2324.24 1074.49,2325.25C1073.58,2326.27 1072.87,2327.5 1072.35,2328.94C1071.84,2330.38 1071.59,2332 1071.59,2333.8C1071.59,2335.68 1071.84,2337.35 1072.35,2338.8C1072.87,2340.26 1073.56,2341.49 1074.44,2342.49C1075.32,2343.49 1076.35,2344.25 1077.53,2344.77C1078.7,2345.29 1079.96,2345.55 1081.3,2345.55C1082.07,2345.55 1082.78,2345.51 1083.41,2345.44C1084.05,2345.36 1084.64,2345.23 1085.19,2345.05C1085.73,2344.86 1086.25,2344.62 1086.75,2344.33C1087.24,2344.03 1087.74,2343.67 1088.25,2343.23C1088.45,2343.07 1088.67,2342.93 1088.9,2342.82C1089.14,2342.71 1089.38,2342.66 1089.63,2342.66Z" style="fill:white;fill-rule:nonzero;"/>
            </g>
            <g transform="matrix(1.88711,0,0,3.02417,-1589.4,-9948.05)">
                <path d="M1124.69,2315.47L1124.69,2322.22L1114.37,2322.22L1114.37,2352.14L1105.86,2352.14L1105.86,2322.22L1095.55,2322.22L1095.55,2315.47L1124.69,2315.47Z" style="fill:white;fill-rule:nonzero;"/>
            </g>
            <g transform="matrix(1.88711,0,0,3.02417,-1589.4,-9948.05)">
                <path d="M1266.05,2335.38C1266.38,2336.02 1266.71,2336.68 1267.02,2337.37C1267.33,2338.06 1267.63,2338.76 1267.91,2339.48C1268.2,2338.75 1268.5,2338.03 1268.82,2337.33C1269.14,2336.64 1269.46,2335.96 1269.8,2335.31L1279.21,2316.78C1279.38,2316.47 1279.55,2316.22 1279.73,2316.04C1279.9,2315.87 1280.1,2315.74 1280.32,2315.65C1280.54,2315.57 1280.78,2315.52 1281.06,2315.5C1281.34,2315.48 1281.66,2315.47 1282.03,2315.47L1288.52,2315.47L1288.52,2352.14L1281.02,2352.14L1281.02,2331.05C1281.02,2330.03 1281.07,2328.92 1281.17,2327.73L1271.46,2346.58C1271.16,2347.17 1270.75,2347.61 1270.24,2347.91C1269.73,2348.22 1269.14,2348.37 1268.49,2348.37L1267.33,2348.37C1266.68,2348.37 1266.1,2348.22 1265.58,2347.91C1265.07,2347.61 1264.66,2347.17 1264.36,2346.58L1254.6,2327.71C1254.66,2328.29 1254.72,2328.88 1254.75,2329.45C1254.78,2330.03 1254.8,2330.57 1254.8,2331.05L1254.8,2352.14L1247.3,2352.14L1247.3,2315.47L1253.79,2315.47C1254.16,2315.47 1254.49,2315.48 1254.76,2315.5C1255.04,2315.52 1255.29,2315.57 1255.5,2315.65C1255.72,2315.74 1255.92,2315.87 1256.1,2316.04C1256.27,2316.22 1256.44,2316.47 1256.61,2316.78L1266.05,2335.38Z" style="fill:white;fill-rule:nonzero;"/>
            </g>
            <g transform="matrix(1.88711,0,0,3.02417,-1589.4,-9948.05)">
                <path d="M1322.1,2352.14C1321.67,2352.14 1321.24,2352.09 1320.84,2351.93C1320.33,2351.73 1319.88,2351.37 1319.57,2350.91C1319.45,2350.72 1319.35,2350.52 1319.28,2350.31L1317.11,2343.91L1303.17,2343.91L1301.01,2350.31C1300.85,2350.75 1300.55,2351.12 1300.2,2351.43C1299.96,2351.64 1299.7,2351.81 1299.4,2351.93C1299.04,2352.08 1298.66,2352.14 1298.27,2352.14L1298.24,2352.14L1291.59,2352.14L1305.79,2315.47L1314.5,2315.47L1328.69,2352.14L1322.1,2352.14ZM1305.13,2338.12L1315.15,2338.12L1311.78,2328.08C1311.56,2327.45 1311.3,2326.7 1311.01,2325.83C1310.72,2324.97 1310.43,2324.03 1310.14,2323.03C1309.87,2324.05 1309.6,2325 1309.31,2325.87C1309.03,2326.74 1308.76,2327.5 1308.51,2328.13L1305.13,2338.12Z" style="fill:white;fill-rule:nonzero;"/>
            </g>
            <g transform="matrix(1.88711,0,0,3.02417,-1589.4,-9948.05)">
                <path d="M1336.14,2315.47C1336.51,2315.47 1336.82,2315.49 1337.07,2315.53C1337.32,2315.56 1337.55,2315.62 1337.75,2315.71C1337.95,2315.81 1338.14,2315.94 1338.33,2316.1C1338.51,2316.27 1338.72,2316.5 1338.96,2316.78L1356.37,2338.8C1356.31,2338.1 1356.26,2337.42 1356.22,2336.75C1356.19,2336.09 1356.17,2335.47 1356.17,2334.88L1356.17,2315.47L1363.67,2315.47L1363.67,2352.14L1359.24,2352.14C1358.59,2352.14 1358.03,2352.04 1357.58,2351.84C1357.13,2351.64 1356.69,2351.27 1356.27,2350.73L1338.98,2328.89C1339.03,2329.53 1339.07,2330.15 1339.11,2330.76C1339.14,2331.38 1339.16,2331.95 1339.16,2332.49L1339.16,2352.14L1331.66,2352.14L1331.66,2315.47L1336.14,2315.47Z" style="fill:white;fill-rule:nonzero;"/>
            </g>
            <g transform="matrix(1.88711,0,0,3.02417,-1589.4,-9948.05)">
                <path d="M1397.24,2352.14C1396.82,2352.14 1396.38,2352.09 1395.98,2351.93C1395.47,2351.73 1395.02,2351.37 1394.72,2350.91C1394.6,2350.72 1394.5,2350.52 1394.42,2350.31L1392.26,2343.91L1378.32,2343.91L1376.15,2350.31C1375.99,2350.75 1375.7,2351.12 1375.35,2351.43C1375.11,2351.64 1374.85,2351.81 1374.55,2351.93C1374.19,2352.08 1373.81,2352.14 1373.42,2352.14L1373.38,2352.14L1366.74,2352.14L1380.93,2315.47L1389.64,2315.47L1403.84,2352.14L1397.24,2352.14ZM1380.28,2338.12L1390.3,2338.12L1386.92,2328.08C1386.71,2327.45 1386.45,2326.7 1386.16,2325.83C1385.86,2324.97 1385.57,2324.03 1385.29,2323.03C1385.02,2324.05 1384.74,2325 1384.46,2325.87C1384.17,2326.74 1383.9,2327.5 1383.65,2328.13L1380.28,2338.12Z" style="fill:white;fill-rule:nonzero;"/>
            </g>
            <g transform="matrix(1.88711,0,0,3.02417,-1589.4,-9948.05)">
                <path d="M1422.56,2346C1423.74,2346 1424.78,2345.9 1425.68,2345.7C1426.59,2345.5 1427.44,2345.23 1428.25,2344.89L1428.25,2339.33L1424.62,2339.33C1424.09,2339.33 1423.67,2339.19 1423.37,2338.91C1423.06,2338.62 1422.91,2338.26 1422.91,2337.82L1422.91,2333.14L1435.95,2333.14L1435.95,2348.62C1435.01,2349.31 1434.03,2349.9 1433.02,2350.39C1432,2350.89 1430.92,2351.3 1429.77,2351.61C1428.62,2351.93 1427.4,2352.17 1426.1,2352.32C1424.8,2352.47 1423.4,2352.55 1421.91,2352.55C1419.22,2352.55 1416.74,2352.07 1414.46,2351.12C1412.17,2350.18 1410.2,2348.87 1408.53,2347.2C1406.86,2345.53 1405.55,2343.55 1404.6,2341.26C1403.66,2338.97 1403.18,2336.48 1403.18,2333.8C1403.18,2331.06 1403.63,2328.55 1404.54,2326.26C1405.45,2323.97 1406.74,2321.99 1408.43,2320.33C1410.12,2318.67 1412.15,2317.38 1414.55,2316.46C1416.94,2315.53 1419.61,2315.07 1422.56,2315.07C1424.09,2315.07 1425.52,2315.2 1426.86,2315.45C1428.21,2315.7 1429.44,2316.05 1430.58,2316.48C1431.71,2316.92 1432.75,2317.44 1433.68,2318.04C1434.62,2318.65 1435.46,2319.3 1436.2,2320.01L1433.74,2323.76C1433.5,2324.11 1433.22,2324.38 1432.89,2324.59C1432.56,2324.79 1432.21,2324.89 1431.82,2324.89C1431.32,2324.89 1430.8,2324.72 1430.26,2324.38C1429.59,2323.98 1428.96,2323.63 1428.36,2323.34C1427.77,2323.05 1427.16,2322.81 1426.54,2322.62C1425.92,2322.44 1425.26,2322.3 1424.57,2322.22C1423.89,2322.14 1423.11,2322.09 1422.26,2322.09C1420.66,2322.09 1419.23,2322.38 1417.95,2322.94C1416.68,2323.5 1415.59,2324.29 1414.7,2325.32C1413.8,2326.34 1413.11,2327.57 1412.62,2329C1412.13,2330.44 1411.89,2332.03 1411.89,2333.8C1411.89,2335.74 1412.16,2337.47 1412.69,2338.98C1413.23,2340.49 1413.97,2341.77 1414.92,2342.81C1415.87,2343.85 1416.99,2344.64 1418.3,2345.18C1419.6,2345.73 1421.02,2346 1422.56,2346Z" style="fill:white;fill-rule:nonzero;"/>
            </g>
            <g transform="matrix(1.88711,0,0,3.02417,-1589.4,-9948.05)">
                <path d="M1464.74,2315.47L1464.74,2322.02L1449.69,2322.02L1449.69,2330.58L1461.22,2330.58L1461.22,2336.87L1449.69,2336.87L1449.69,2345.6L1464.74,2345.6L1464.74,2352.14L1441.13,2352.14L1441.13,2315.47L1464.74,2315.47Z" style="fill:white;fill-rule:nonzero;"/>
            </g>
            <g transform="matrix(1.88711,0,0,3.02417,-1589.4,-9948.05)">
                <path d="M1488.32,2335.38C1488.66,2336.02 1488.98,2336.68 1489.29,2337.37C1489.6,2338.06 1489.9,2338.76 1490.18,2339.48C1490.47,2338.75 1490.77,2338.03 1491.09,2337.33C1491.41,2336.64 1491.74,2335.96 1492.07,2335.31L1501.48,2316.78C1501.65,2316.47 1501.82,2316.22 1502,2316.04C1502.17,2315.87 1502.37,2315.74 1502.59,2315.65C1502.81,2315.57 1503.06,2315.52 1503.33,2315.5C1503.61,2315.48 1503.93,2315.47 1504.3,2315.47L1510.8,2315.47L1510.8,2352.14L1503.3,2352.14L1503.3,2331.05C1503.3,2330.03 1503.35,2328.92 1503.45,2327.73L1493.73,2346.58C1493.43,2347.17 1493.02,2347.61 1492.51,2347.91C1492,2348.22 1491.42,2348.37 1490.76,2348.37L1489.61,2348.37C1488.95,2348.37 1488.37,2348.22 1487.86,2347.91C1487.34,2347.61 1486.94,2347.17 1486.63,2346.58L1476.87,2327.71C1476.94,2328.29 1476.99,2328.88 1477.02,2329.45C1477.06,2330.03 1477.07,2330.57 1477.07,2331.05L1477.07,2352.14L1469.57,2352.14L1469.57,2315.47L1476.07,2315.47C1476.43,2315.47 1476.76,2315.48 1477.03,2315.5C1477.31,2315.52 1477.56,2315.57 1477.78,2315.65C1477.99,2315.74 1478.19,2315.87 1478.37,2316.04C1478.54,2316.22 1478.72,2316.47 1478.88,2316.78L1488.32,2335.38Z" style="fill:white;fill-rule:nonzero;"/>
            </g>
            <g transform="matrix(1.88711,0,0,3.02417,-1589.4,-9948.05)">
                <path d="M1540.44,2315.47L1540.44,2322.02L1525.39,2322.02L1525.39,2330.58L1536.92,2330.58L1536.92,2336.87L1525.39,2336.87L1525.39,2345.6L1540.44,2345.6L1540.44,2352.14L1516.84,2352.14L1516.84,2315.47L1540.44,2315.47Z" style="fill:white;fill-rule:nonzero;"/>
            </g>
            <g transform="matrix(1.88711,0,0,3.02417,-1589.4,-9948.05)">
                <path d="M1549.75,2315.47C1550.12,2315.47 1550.43,2315.49 1550.68,2315.53C1550.94,2315.56 1551.16,2315.62 1551.36,2315.71C1551.57,2315.81 1551.76,2315.94 1551.94,2316.1C1552.13,2316.27 1552.34,2316.5 1552.57,2316.78L1569.99,2338.8C1569.92,2338.1 1569.87,2337.42 1569.84,2336.75C1569.8,2336.09 1569.79,2335.47 1569.79,2334.88L1569.79,2315.47L1577.29,2315.47L1577.29,2352.14L1572.86,2352.14C1572.2,2352.14 1571.65,2352.04 1571.19,2351.84C1570.74,2351.64 1570.31,2351.27 1569.89,2350.73L1552.6,2328.89C1552.65,2329.53 1552.69,2330.15 1552.72,2330.76C1552.76,2331.38 1552.77,2331.95 1552.77,2332.49L1552.77,2352.14L1545.27,2352.14L1545.27,2315.47L1549.75,2315.47Z" style="fill:white;fill-rule:nonzero;"/>
            </g>
            <g transform="matrix(1.88711,0,0,3.02417,-1589.4,-9948.05)">
                <path d="M1609.95,2315.47L1609.95,2322.22L1599.63,2322.22L1599.63,2352.14L1591.13,2352.14L1591.13,2322.22L1580.81,2322.22L1580.81,2315.47L1609.95,2315.47Z" style="fill:white;fill-rule:nonzero;"/>
            </g>
            <g transform="matrix(1.88711,0,0,3.02417,-1589.4,-9948.05)">
                <path d="M1218.47,2343.71C1223.62,2343.71 1227.8,2339.36 1227.8,2334C1227.8,2328.65 1223.62,2324.3 1218.47,2324.3C1213.33,2324.3 1209.15,2328.65 1209.15,2334C1209.15,2339.36 1213.33,2343.71 1218.47,2343.71Z" style="fill:white;fill-rule:nonzero;"/>
            </g>
            <g transform="matrix(1.88711,0,0,3.02417,-1589.4,-9948.05)">
                <path d="M1143.89,2350.99C1138.75,2350.99 1134.57,2355.34 1134.57,2360.69C1134.57,2366.05 1138.75,2370.4 1143.89,2370.4C1149.03,2370.4 1153.21,2366.05 1153.21,2360.69C1153.21,2355.34 1149.03,2350.99 1143.89,2350.99Z" style="fill:white;fill-rule:nonzero;"/>
            </g>
            <g transform="matrix(1.88711,0,0,3.02417,-1589.4,-9948.05)">
                <path d="M1209.38,2345.35L1206.59,2341.46L1199.6,2346.92L1202.39,2350.8L1209.38,2345.35Z" style="fill:white;fill-rule:nonzero;"/>
            </g>
            <g transform="matrix(1.88711,0,0,3.02417,-1589.4,-9948.05)">
                <path d="M1218.47,2372.82C1216.38,2372.82 1214.45,2373.58 1212.89,2374.8L1198.91,2366.06C1199.46,2364.36 1199.83,2362.57 1199.83,2360.68C1199.83,2351.29 1192.53,2343.69 1183.51,2343.69C1182.29,2343.69 1181.09,2343.86 1179.96,2344.13L1174.02,2330.88C1175.56,2329.15 1176.52,2326.85 1176.52,2324.3C1176.52,2318.95 1172.34,2314.59 1167.2,2314.59C1162.06,2314.59 1157.87,2318.95 1157.87,2324.3C1157.87,2329.65 1162.06,2334 1167.2,2334C1167.36,2334 1167.5,2333.96 1167.66,2333.96L1173.64,2347.27C1169.75,2350.37 1167.2,2355.2 1167.2,2360.69C1167.2,2370.08 1174.5,2377.68 1183.51,2377.68C1188.19,2377.68 1192.37,2375.6 1195.34,2372.32L1209.3,2381.04C1209.22,2381.53 1209.15,2382.03 1209.15,2382.53C1209.15,2387.88 1213.33,2392.23 1218.47,2392.23C1223.62,2392.23 1227.8,2387.88 1227.8,2382.53C1227.8,2377.18 1223.62,2372.82 1218.47,2372.82ZM1183.51,2367.97C1179.65,2367.97 1176.52,2364.71 1176.52,2360.69C1176.52,2356.67 1179.65,2353.41 1183.51,2353.41C1187.37,2353.41 1190.51,2356.67 1190.51,2360.69C1190.51,2364.71 1187.37,2367.97 1183.51,2367.97Z" style="fill:white;fill-rule:nonzero;"/>
            </g>
            <g transform="matrix(1.88711,0,0,3.02417,-1589.4,-9948.05)">
                <rect x="1156.71" y="2358.27" width="6.992" height="4.853" style="fill:white;fill-rule:nonzero;"/>
            </g>
        </g>
    </g>
</svg>
